<mxfile host="65bd71144e">
    <diagram id="EMsnFy1C2URI4qa25FuF" name="Page-1">
        <mxGraphModel dx="1948" dy="1819" grid="1" gridSize="10" guides="1" tooltips="1" connect="1" arrows="1" fold="1" page="1" pageScale="1" pageWidth="850" pageHeight="1100" math="0" shadow="0">
            <root>
                <mxCell id="0"/>
                <mxCell id="1" parent="0"/>
                <mxCell id="giXjkZHh8Y0QURDj5Op1-1" value="Atlantis" style="text;html=1;strokeColor=none;fillColor=none;align=center;verticalAlign=middle;whiteSpace=wrap;rounded=0;fontStyle=1;fontSize=50;" parent="1" vertex="1">
                    <mxGeometry x="270" y="-150" width="40" height="20" as="geometry"/>
                </mxCell>
                <mxCell id="u1OFld2upA4ko9-arGOs-12" value="generates" style="edgeStyle=orthogonalEdgeStyle;rounded=0;orthogonalLoop=1;jettySize=auto;html=1;" parent="1" source="u1OFld2upA4ko9-arGOs-2" target="u1OFld2upA4ko9-arGOs-3" edge="1">
                    <mxGeometry y="20" relative="1" as="geometry">
                        <mxPoint as="offset"/>
                    </mxGeometry>
                </mxCell>
                <mxCell id="u1OFld2upA4ko9-arGOs-35" style="edgeStyle=orthogonalEdgeStyle;rounded=0;orthogonalLoop=1;jettySize=auto;html=1;entryX=0;entryY=0.5;entryDx=0;entryDy=0;" parent="1" source="u1OFld2upA4ko9-arGOs-2" target="u1OFld2upA4ko9-arGOs-34" edge="1">
                    <mxGeometry relative="1" as="geometry"/>
                </mxCell>
                <mxCell id="u1OFld2upA4ko9-arGOs-2" value="Planets" style="rounded=0;whiteSpace=wrap;html=1;" parent="1" vertex="1">
                    <mxGeometry x="200" y="80" width="120" height="60" as="geometry"/>
                </mxCell>
                <mxCell id="u1OFld2upA4ko9-arGOs-37" style="edgeStyle=orthogonalEdgeStyle;rounded=0;orthogonalLoop=1;jettySize=auto;html=1;" parent="1" source="u1OFld2upA4ko9-arGOs-3" target="u1OFld2upA4ko9-arGOs-6" edge="1">
                    <mxGeometry relative="1" as="geometry"/>
                </mxCell>
                <mxCell id="u1OFld2upA4ko9-arGOs-86" value="creates" style="edgeStyle=orthogonalEdgeStyle;rounded=0;orthogonalLoop=1;jettySize=auto;html=1;exitX=0.5;exitY=1;exitDx=0;exitDy=0;" parent="1" source="u1OFld2upA4ko9-arGOs-3" edge="1">
                    <mxGeometry x="-0.6604" y="20" relative="1" as="geometry">
                        <mxPoint x="260" y="140" as="targetPoint"/>
                        <Array as="points">
                            <mxPoint x="540" y="110"/>
                            <mxPoint x="780" y="110"/>
                            <mxPoint x="780" y="260"/>
                            <mxPoint x="260" y="260"/>
                        </Array>
                        <mxPoint as="offset"/>
                    </mxGeometry>
                </mxCell>
                <mxCell id="u1OFld2upA4ko9-arGOs-3" value="Materials" style="rounded=0;whiteSpace=wrap;html=1;" parent="1" vertex="1">
                    <mxGeometry x="480" y="80" width="120" height="60" as="geometry"/>
                </mxCell>
                <mxCell id="u1OFld2upA4ko9-arGOs-39" style="edgeStyle=orthogonalEdgeStyle;rounded=0;orthogonalLoop=1;jettySize=auto;html=1;" parent="1" source="u1OFld2upA4ko9-arGOs-4" target="u1OFld2upA4ko9-arGOs-5" edge="1">
                    <mxGeometry relative="1" as="geometry"/>
                </mxCell>
                <mxCell id="u1OFld2upA4ko9-arGOs-4" value="Spaceship" style="rounded=0;whiteSpace=wrap;html=1;" parent="1" vertex="1">
                    <mxGeometry x="1130" y="80" width="120" height="60" as="geometry"/>
                </mxCell>
                <mxCell id="u1OFld2upA4ko9-arGOs-5" value="Races" style="rounded=0;whiteSpace=wrap;html=1;" parent="1" vertex="1">
                    <mxGeometry x="1330" y="80" width="120" height="60" as="geometry"/>
                </mxCell>
                <mxCell id="u1OFld2upA4ko9-arGOs-38" style="edgeStyle=orthogonalEdgeStyle;rounded=0;orthogonalLoop=1;jettySize=auto;html=1;" parent="1" source="u1OFld2upA4ko9-arGOs-6" target="u1OFld2upA4ko9-arGOs-4" edge="1">
                    <mxGeometry relative="1" as="geometry"/>
                </mxCell>
                <mxCell id="u1OFld2upA4ko9-arGOs-6" value="Components" style="rounded=0;whiteSpace=wrap;html=1;" parent="1" vertex="1">
                    <mxGeometry x="930" y="80" width="120" height="60" as="geometry"/>
                </mxCell>
                <mxCell id="u1OFld2upA4ko9-arGOs-36" value="attaches to" style="edgeStyle=orthogonalEdgeStyle;rounded=0;orthogonalLoop=1;jettySize=auto;html=1;entryX=0;entryY=0.5;entryDx=0;entryDy=0;" parent="1" source="u1OFld2upA4ko9-arGOs-8" target="u1OFld2upA4ko9-arGOs-2" edge="1">
                    <mxGeometry relative="1" as="geometry"/>
                </mxCell>
                <mxCell id="u1OFld2upA4ko9-arGOs-8" value="Argonauts" style="rounded=0;whiteSpace=wrap;html=1;" parent="1" vertex="1">
                    <mxGeometry x="-160" y="80" width="120" height="60" as="geometry"/>
                </mxCell>
                <mxCell id="u1OFld2upA4ko9-arGOs-13" value="- 4512 Planets&lt;br&gt;- Base Element (Fire Lightning Steel)&lt;br&gt;- Orbit&lt;br&gt;- Level&lt;br&gt;- Background&lt;br&gt;- Rarities (Common, Uncommon, Rare, Epic)&lt;br&gt;- Can be levelled Up using xDAWG&lt;br&gt;&lt;br&gt;&lt;br&gt;&lt;br&gt;&lt;div&gt;&lt;br&gt;&lt;/div&gt;" style="text;html=1;strokeColor=none;fillColor=none;align=left;verticalAlign=middle;whiteSpace=wrap;rounded=0;" parent="1" vertex="1">
                    <mxGeometry x="200" y="280" width="250" height="170" as="geometry"/>
                </mxCell>
                <mxCell id="u1OFld2upA4ko9-arGOs-14" value="" style="ellipse;whiteSpace=wrap;html=1;fillColor=#f8cecc;strokeColor=#b85450;" parent="1" vertex="1">
                    <mxGeometry x="220" y="420" width="50" height="50" as="geometry"/>
                </mxCell>
                <mxCell id="u1OFld2upA4ko9-arGOs-15" value="" style="ellipse;whiteSpace=wrap;html=1;fillColor=#dae8fc;strokeColor=#6c8ebf;" parent="1" vertex="1">
                    <mxGeometry x="320" y="420" width="50" height="50" as="geometry"/>
                </mxCell>
                <mxCell id="u1OFld2upA4ko9-arGOs-16" value="" style="ellipse;whiteSpace=wrap;html=1;fillColor=#e1d5e7;strokeColor=#9673a6;" parent="1" vertex="1">
                    <mxGeometry x="420" y="420" width="50" height="50" as="geometry"/>
                </mxCell>
                <mxCell id="u1OFld2upA4ko9-arGOs-17" value="Steel Planet" style="text;html=1;strokeColor=none;fillColor=none;align=center;verticalAlign=middle;whiteSpace=wrap;rounded=0;" parent="1" vertex="1">
                    <mxGeometry x="425" y="490" width="40" height="20" as="geometry"/>
                </mxCell>
                <mxCell id="u1OFld2upA4ko9-arGOs-18" value="Lightning Planet" style="text;html=1;strokeColor=none;fillColor=none;align=center;verticalAlign=middle;whiteSpace=wrap;rounded=0;" parent="1" vertex="1">
                    <mxGeometry x="325" y="490" width="40" height="20" as="geometry"/>
                </mxCell>
                <mxCell id="u1OFld2upA4ko9-arGOs-19" value="Fire Planet" style="text;html=1;strokeColor=none;fillColor=none;align=center;verticalAlign=middle;whiteSpace=wrap;rounded=0;" parent="1" vertex="1">
                    <mxGeometry x="225" y="490" width="40" height="20" as="geometry"/>
                </mxCell>
                <mxCell id="u1OFld2upA4ko9-arGOs-21" value="" style="endArrow=classic;html=1;" parent="1" edge="1">
                    <mxGeometry width="50" height="50" relative="1" as="geometry">
                        <mxPoint x="344.5" y="530" as="sourcePoint"/>
                        <mxPoint x="344.5" y="620" as="targetPoint"/>
                    </mxGeometry>
                </mxCell>
                <mxCell id="u1OFld2upA4ko9-arGOs-22" value="" style="endArrow=classic;html=1;" parent="1" edge="1">
                    <mxGeometry width="50" height="50" relative="1" as="geometry">
                        <mxPoint x="444.5" y="530" as="sourcePoint"/>
                        <mxPoint x="444.5" y="620" as="targetPoint"/>
                    </mxGeometry>
                </mxCell>
                <mxCell id="u1OFld2upA4ko9-arGOs-27" value="" style="rounded=0;whiteSpace=wrap;html=1;fillColor=#dae8fc;strokeColor=#6c8ebf;" parent="1" vertex="1">
                    <mxGeometry x="330" y="655" width="30" height="10" as="geometry"/>
                </mxCell>
                <mxCell id="u1OFld2upA4ko9-arGOs-28" value="" style="rounded=0;whiteSpace=wrap;html=1;fillColor=#dae8fc;strokeColor=#6c8ebf;" parent="1" vertex="1">
                    <mxGeometry x="330" y="665" width="30" height="10" as="geometry"/>
                </mxCell>
                <mxCell id="u1OFld2upA4ko9-arGOs-29" value="" style="rounded=0;whiteSpace=wrap;html=1;fillColor=#e1d5e7;strokeColor=#9673a6;" parent="1" vertex="1">
                    <mxGeometry x="430" y="655" width="30" height="10" as="geometry"/>
                </mxCell>
                <mxCell id="u1OFld2upA4ko9-arGOs-30" value="" style="rounded=0;whiteSpace=wrap;html=1;fillColor=#e1d5e7;strokeColor=#9673a6;" parent="1" vertex="1">
                    <mxGeometry x="430" y="665" width="30" height="10" as="geometry"/>
                </mxCell>
                <mxCell id="u1OFld2upA4ko9-arGOs-31" value="Tier 1 Fire Materials" style="text;html=1;strokeColor=none;fillColor=none;align=center;verticalAlign=middle;whiteSpace=wrap;rounded=0;" parent="1" vertex="1">
                    <mxGeometry x="220" y="710" width="50" height="20" as="geometry"/>
                </mxCell>
                <mxCell id="u1OFld2upA4ko9-arGOs-32" value="Tier 1 Lightning Materials" style="text;html=1;strokeColor=none;fillColor=none;align=center;verticalAlign=middle;whiteSpace=wrap;rounded=0;" parent="1" vertex="1">
                    <mxGeometry x="317.5" y="710" width="55" height="20" as="geometry"/>
                </mxCell>
                <mxCell id="u1OFld2upA4ko9-arGOs-33" value="Tier 1 Steel Materials" style="text;html=1;strokeColor=none;fillColor=none;align=center;verticalAlign=middle;whiteSpace=wrap;rounded=0;" parent="1" vertex="1">
                    <mxGeometry x="415" y="710" width="60" height="20" as="geometry"/>
                </mxCell>
                <mxCell id="u1OFld2upA4ko9-arGOs-40" value="upgrades" style="edgeStyle=orthogonalEdgeStyle;rounded=0;orthogonalLoop=1;jettySize=auto;html=1;entryX=0.5;entryY=1;entryDx=0;entryDy=0;exitX=0.5;exitY=1;exitDx=0;exitDy=0;" parent="1" source="u1OFld2upA4ko9-arGOs-34" target="u1OFld2upA4ko9-arGOs-2" edge="1">
                    <mxGeometry relative="1" as="geometry">
                        <Array as="points">
                            <mxPoint x="540" y="260"/>
                            <mxPoint x="260" y="260"/>
                        </Array>
                    </mxGeometry>
                </mxCell>
                <mxCell id="u1OFld2upA4ko9-arGOs-34" value="xDAWG" style="rounded=0;whiteSpace=wrap;html=1;" parent="1" vertex="1">
                    <mxGeometry x="480" y="160" width="120" height="60" as="geometry"/>
                </mxCell>
                <mxCell id="u1OFld2upA4ko9-arGOs-41" value="- 4 Tiers&lt;br&gt;- Fuse 3 of the previous tier + xDAWG to get next tier" style="text;html=1;strokeColor=none;fillColor=none;align=center;verticalAlign=middle;whiteSpace=wrap;rounded=0;" parent="1" vertex="1">
                    <mxGeometry x="700" y="380" width="160" height="50" as="geometry"/>
                </mxCell>
                <mxCell id="u1OFld2upA4ko9-arGOs-42" value="" style="rounded=0;whiteSpace=wrap;html=1;fillColor=#f8cecc;strokeColor=#b85450;" parent="1" vertex="1">
                    <mxGeometry x="230" y="655" width="30" height="10" as="geometry"/>
                </mxCell>
                <mxCell id="u1OFld2upA4ko9-arGOs-43" value="" style="rounded=0;whiteSpace=wrap;html=1;fillColor=#f8cecc;strokeColor=#b85450;" parent="1" vertex="1">
                    <mxGeometry x="230" y="665" width="30" height="10" as="geometry"/>
                </mxCell>
                <mxCell id="u1OFld2upA4ko9-arGOs-44" value="" style="rounded=0;whiteSpace=wrap;html=1;fillColor=none;" parent="1" vertex="1">
                    <mxGeometry x="220" y="640" width="50" height="50" as="geometry"/>
                </mxCell>
                <mxCell id="u1OFld2upA4ko9-arGOs-58" value="" style="rounded=0;whiteSpace=wrap;html=1;fillColor=#f8cecc;strokeColor=#b85450;" parent="1" vertex="1">
                    <mxGeometry x="770" y="465" width="30" height="10" as="geometry"/>
                </mxCell>
                <mxCell id="u1OFld2upA4ko9-arGOs-59" value="" style="rounded=0;whiteSpace=wrap;html=1;fillColor=#f8cecc;strokeColor=#b85450;" parent="1" vertex="1">
                    <mxGeometry x="770" y="475" width="30" height="10" as="geometry"/>
                </mxCell>
                <mxCell id="u1OFld2upA4ko9-arGOs-60" value="" style="rounded=0;whiteSpace=wrap;html=1;fillColor=none;" parent="1" vertex="1">
                    <mxGeometry x="760" y="450" width="50" height="50" as="geometry"/>
                </mxCell>
                <mxCell id="u1OFld2upA4ko9-arGOs-61" value="" style="rounded=0;whiteSpace=wrap;html=1;fillColor=#f8cecc;strokeColor=#b85450;" parent="1" vertex="1">
                    <mxGeometry x="830" y="465" width="30" height="10" as="geometry"/>
                </mxCell>
                <mxCell id="u1OFld2upA4ko9-arGOs-62" value="" style="rounded=0;whiteSpace=wrap;html=1;fillColor=#f8cecc;strokeColor=#b85450;" parent="1" vertex="1">
                    <mxGeometry x="830" y="475" width="30" height="10" as="geometry"/>
                </mxCell>
                <mxCell id="u1OFld2upA4ko9-arGOs-67" style="edgeStyle=orthogonalEdgeStyle;rounded=0;orthogonalLoop=1;jettySize=auto;html=1;entryX=0;entryY=0.5;entryDx=0;entryDy=0;" parent="1" source="u1OFld2upA4ko9-arGOs-63" target="u1OFld2upA4ko9-arGOs-66" edge="1">
                    <mxGeometry relative="1" as="geometry"/>
                </mxCell>
                <mxCell id="u1OFld2upA4ko9-arGOs-63" value="" style="rounded=0;whiteSpace=wrap;html=1;fillColor=none;" parent="1" vertex="1">
                    <mxGeometry x="820" y="450" width="50" height="50" as="geometry"/>
                </mxCell>
                <mxCell id="u1OFld2upA4ko9-arGOs-64" value="" style="rounded=0;whiteSpace=wrap;html=1;fillColor=#f8cecc;strokeColor=#b85450;" parent="1" vertex="1">
                    <mxGeometry x="950" y="465" width="30" height="10" as="geometry"/>
                </mxCell>
                <mxCell id="u1OFld2upA4ko9-arGOs-65" value="" style="rounded=0;whiteSpace=wrap;html=1;fillColor=#f8cecc;strokeColor=#b85450;" parent="1" vertex="1">
                    <mxGeometry x="950" y="475" width="30" height="10" as="geometry"/>
                </mxCell>
                <mxCell id="u1OFld2upA4ko9-arGOs-66" value="" style="rounded=0;whiteSpace=wrap;html=1;strokeColor=#82b366;fillColor=none;" parent="1" vertex="1">
                    <mxGeometry x="940" y="450" width="50" height="50" as="geometry"/>
                </mxCell>
                <mxCell id="u1OFld2upA4ko9-arGOs-68" value="" style="rounded=0;whiteSpace=wrap;html=1;fillColor=#f8cecc;strokeColor=#b85450;" parent="1" vertex="1">
                    <mxGeometry x="710" y="535" width="30" height="10" as="geometry"/>
                </mxCell>
                <mxCell id="u1OFld2upA4ko9-arGOs-69" value="" style="rounded=0;whiteSpace=wrap;html=1;fillColor=#f8cecc;strokeColor=#b85450;" parent="1" vertex="1">
                    <mxGeometry x="710" y="545" width="30" height="10" as="geometry"/>
                </mxCell>
                <mxCell id="u1OFld2upA4ko9-arGOs-70" value="" style="rounded=0;whiteSpace=wrap;html=1;strokeColor=#82b366;fillColor=none;" parent="1" vertex="1">
                    <mxGeometry x="700" y="520" width="50" height="50" as="geometry"/>
                </mxCell>
                <mxCell id="u1OFld2upA4ko9-arGOs-71" value="" style="rounded=0;whiteSpace=wrap;html=1;fillColor=#f8cecc;strokeColor=#b85450;" parent="1" vertex="1">
                    <mxGeometry x="770" y="535" width="30" height="10" as="geometry"/>
                </mxCell>
                <mxCell id="u1OFld2upA4ko9-arGOs-72" value="" style="rounded=0;whiteSpace=wrap;html=1;fillColor=#f8cecc;strokeColor=#b85450;" parent="1" vertex="1">
                    <mxGeometry x="770" y="545" width="30" height="10" as="geometry"/>
                </mxCell>
                <mxCell id="u1OFld2upA4ko9-arGOs-73" value="" style="rounded=0;whiteSpace=wrap;html=1;strokeColor=#82b366;fillColor=none;" parent="1" vertex="1">
                    <mxGeometry x="760" y="520" width="50" height="50" as="geometry"/>
                </mxCell>
                <mxCell id="u1OFld2upA4ko9-arGOs-74" value="" style="rounded=0;whiteSpace=wrap;html=1;fillColor=#f8cecc;strokeColor=#b85450;" parent="1" vertex="1">
                    <mxGeometry x="830" y="535" width="30" height="10" as="geometry"/>
                </mxCell>
                <mxCell id="u1OFld2upA4ko9-arGOs-75" value="" style="rounded=0;whiteSpace=wrap;html=1;fillColor=#f8cecc;strokeColor=#b85450;" parent="1" vertex="1">
                    <mxGeometry x="830" y="545" width="30" height="10" as="geometry"/>
                </mxCell>
                <mxCell id="u1OFld2upA4ko9-arGOs-77" style="edgeStyle=orthogonalEdgeStyle;rounded=0;orthogonalLoop=1;jettySize=auto;html=1;" parent="1" source="u1OFld2upA4ko9-arGOs-76" edge="1">
                    <mxGeometry relative="1" as="geometry">
                        <mxPoint x="940" y="545" as="targetPoint"/>
                    </mxGeometry>
                </mxCell>
                <mxCell id="u1OFld2upA4ko9-arGOs-76" value="" style="rounded=0;whiteSpace=wrap;html=1;strokeColor=#82b366;fillColor=none;" parent="1" vertex="1">
                    <mxGeometry x="820" y="520" width="50" height="50" as="geometry"/>
                </mxCell>
                <mxCell id="u1OFld2upA4ko9-arGOs-78" value="" style="rounded=0;whiteSpace=wrap;html=1;fillColor=#f8cecc;strokeColor=#b85450;" parent="1" vertex="1">
                    <mxGeometry x="950" y="535" width="30" height="10" as="geometry"/>
                </mxCell>
                <mxCell id="u1OFld2upA4ko9-arGOs-79" value="" style="rounded=0;whiteSpace=wrap;html=1;fillColor=#f8cecc;strokeColor=#b85450;" parent="1" vertex="1">
                    <mxGeometry x="950" y="545" width="30" height="10" as="geometry"/>
                </mxCell>
                <mxCell id="u1OFld2upA4ko9-arGOs-80" value="" style="rounded=0;whiteSpace=wrap;html=1;strokeColor=#6c8ebf;fillColor=none;" parent="1" vertex="1">
                    <mxGeometry x="940" y="520" width="50" height="50" as="geometry"/>
                </mxCell>
                <mxCell id="u1OFld2upA4ko9-arGOs-81" value="" style="rounded=0;whiteSpace=wrap;html=1;fillColor=none;" parent="1" vertex="1">
                    <mxGeometry x="320" y="640" width="50" height="50" as="geometry"/>
                </mxCell>
                <mxCell id="u1OFld2upA4ko9-arGOs-82" value="" style="rounded=0;whiteSpace=wrap;html=1;fillColor=none;direction=south;" parent="1" vertex="1">
                    <mxGeometry x="420" y="640" width="50" height="50" as="geometry"/>
                </mxCell>
                <mxCell id="u1OFld2upA4ko9-arGOs-84" value="" style="endArrow=classic;html=1;" parent="1" edge="1">
                    <mxGeometry width="50" height="50" relative="1" as="geometry">
                        <mxPoint x="244.76" y="530" as="sourcePoint"/>
                        <mxPoint x="244.76" y="620" as="targetPoint"/>
                    </mxGeometry>
                </mxCell>
                <mxCell id="u1OFld2upA4ko9-arGOs-87" value="" style="rounded=0;whiteSpace=wrap;html=1;fillColor=#f8cecc;strokeColor=#b85450;" parent="1" vertex="1">
                    <mxGeometry x="710" y="465" width="30" height="10" as="geometry"/>
                </mxCell>
                <mxCell id="u1OFld2upA4ko9-arGOs-88" value="" style="rounded=0;whiteSpace=wrap;html=1;fillColor=#f8cecc;strokeColor=#b85450;" parent="1" vertex="1">
                    <mxGeometry x="710" y="475" width="30" height="10" as="geometry"/>
                </mxCell>
                <mxCell id="u1OFld2upA4ko9-arGOs-89" value="" style="rounded=0;whiteSpace=wrap;html=1;fillColor=none;" parent="1" vertex="1">
                    <mxGeometry x="700" y="450" width="50" height="50" as="geometry"/>
                </mxCell>
                <mxCell id="u1OFld2upA4ko9-arGOs-90" value="phase 0" style="text;html=1;strokeColor=none;fillColor=none;align=center;verticalAlign=middle;whiteSpace=wrap;rounded=0;fontStyle=1;fontSize=24;" parent="1" vertex="1">
                    <mxGeometry x="-170" y="10" width="110" height="20" as="geometry"/>
                </mxCell>
                <mxCell id="u1OFld2upA4ko9-arGOs-91" value="phase 1" style="text;html=1;strokeColor=none;fillColor=none;align=center;verticalAlign=middle;whiteSpace=wrap;rounded=0;fontStyle=1;fontSize=24;" parent="1" vertex="1">
                    <mxGeometry x="200" y="10" width="110" height="20" as="geometry"/>
                </mxCell>
                <mxCell id="u1OFld2upA4ko9-arGOs-93" value="phase 2" style="text;html=1;strokeColor=none;fillColor=none;align=center;verticalAlign=middle;whiteSpace=wrap;rounded=0;fontStyle=1;fontSize=24;" parent="1" vertex="1">
                    <mxGeometry x="920" y="10" width="110" height="20" as="geometry"/>
                </mxCell>
                <mxCell id="u1OFld2upA4ko9-arGOs-94" value="phase 3" style="text;html=1;strokeColor=none;fillColor=none;align=center;verticalAlign=middle;whiteSpace=wrap;rounded=0;fontStyle=1;fontSize=24;" parent="1" vertex="1">
                    <mxGeometry x="1120" y="10" width="110" height="20" as="geometry"/>
                </mxCell>
                <mxCell id="u1OFld2upA4ko9-arGOs-95" value="phase 4" style="text;html=1;strokeColor=none;fillColor=none;align=center;verticalAlign=middle;whiteSpace=wrap;rounded=0;fontStyle=1;fontSize=24;" parent="1" vertex="1">
                    <mxGeometry x="1320" y="10" width="110" height="20" as="geometry"/>
                </mxCell>
            </root>
        </mxGraphModel>
    </diagram>
    <diagram id="U0PmC7_1G0eKBXTK36ue" name="Page-2">
        <mxGraphModel dx="1098" dy="719" grid="1" gridSize="10" guides="1" tooltips="1" connect="1" arrows="1" fold="1" page="1" pageScale="1" pageWidth="827" pageHeight="1169" math="0" shadow="0">
            <root>
                <mxCell id="dx32Lm2rJK0-x-6wuxWk-0"/>
                <mxCell id="dx32Lm2rJK0-x-6wuxWk-1" parent="dx32Lm2rJK0-x-6wuxWk-0"/>
                <mxCell id="dx32Lm2rJK0-x-6wuxWk-2" value="AtlantisAddressRegistry" style="rounded=0;whiteSpace=wrap;html=1;" vertex="1" parent="dx32Lm2rJK0-x-6wuxWk-1">
                    <mxGeometry x="294" y="290" width="120" height="60" as="geometry"/>
                </mxCell>
                <mxCell id="dx32Lm2rJK0-x-6wuxWk-5" value="Atlantis" style="swimlane;fontStyle=0;childLayout=stackLayout;horizontal=1;startSize=30;horizontalStack=0;resizeParent=1;resizeParentMax=0;resizeLast=0;collapsible=1;marginBottom=0;" vertex="1" parent="dx32Lm2rJK0-x-6wuxWk-1">
                    <mxGeometry x="344" y="490" width="140" height="120" as="geometry"/>
                </mxCell>
                <mxCell id="dx32Lm2rJK0-x-6wuxWk-6" value="startExpedition" style="text;strokeColor=none;fillColor=none;align=left;verticalAlign=middle;spacingLeft=4;spacingRight=4;overflow=hidden;points=[[0,0.5],[1,0.5]];portConstraint=eastwest;rotatable=0;" vertex="1" parent="dx32Lm2rJK0-x-6wuxWk-5">
                    <mxGeometry y="30" width="140" height="30" as="geometry"/>
                </mxCell>
                <mxCell id="dx32Lm2rJK0-x-6wuxWk-7" value="endExpedition" style="text;strokeColor=none;fillColor=none;align=left;verticalAlign=middle;spacingLeft=4;spacingRight=4;overflow=hidden;points=[[0,0.5],[1,0.5]];portConstraint=eastwest;rotatable=0;" vertex="1" parent="dx32Lm2rJK0-x-6wuxWk-5">
                    <mxGeometry y="60" width="140" height="30" as="geometry"/>
                </mxCell>
                <mxCell id="dx32Lm2rJK0-x-6wuxWk-8" value="claimRewards" style="text;strokeColor=none;fillColor=none;align=left;verticalAlign=middle;spacingLeft=4;spacingRight=4;overflow=hidden;points=[[0,0.5],[1,0.5]];portConstraint=eastwest;rotatable=0;" vertex="1" parent="dx32Lm2rJK0-x-6wuxWk-5">
                    <mxGeometry y="90" width="140" height="30" as="geometry"/>
                </mxCell>
            </root>
        </mxGraphModel>
    </diagram>
</mxfile>